<svg width="166" height="166" viewBox="0 0 166 166" fill="none" xmlns="http://www.w3.org/2000/svg">
<path d="M82.9991 166C66.5833 166 50.5362 161.132 36.8871 152.012C23.238 142.891 12.5998 129.929 6.31785 114.762C0.0358988 99.5961 -1.6077 82.9076 1.59491 66.8073C4.79751 50.707 12.7025 35.9179 24.3102 24.3102C35.9179 12.7025 50.707 4.79751 66.8073 1.59491C82.9076 -1.6077 99.5961 0.0358988 114.762 6.31785C129.929 12.5998 142.891 23.238 152.012 36.8871C161.132 50.5362 166 66.5833 166 82.9991C165.975 105.005 157.223 126.102 141.662 141.662C126.102 157.223 105.005 165.975 82.9991 166ZM82.9991 7.98514C68.1625 7.98533 53.6592 12.3851 41.3232 20.628C28.9871 28.8709 19.3724 40.5867 13.6949 54.294C8.01737 68.0013 6.53202 83.0843 9.42668 97.6357C12.3213 112.187 19.466 125.553 29.9572 136.044C40.4483 146.535 53.8148 153.68 68.3663 156.574C82.9178 159.468 98.0008 157.982 111.708 152.304C125.415 146.627 137.131 137.012 145.373 124.675C153.616 112.339 158.015 97.8356 158.015 82.9991C157.992 63.1108 150.081 44.0436 136.018 29.9806C121.955 15.9177 102.887 8.00737 82.9991 7.98514Z" fill="#fff"/>
</svg>